<?xml version="1.0" encoding="UTF-8"?>
<svg viewBox="0 0 512 512" version="1.1" xmlns="http://www.w3.org/2000/svg" xmlns:xlink="http://www.w3.org/1999/xlink">
    <!-- Generator: Sketch 57.1 (83088) - https://sketch.com -->
    <title>notify-icon</title>
    <desc>Created with Sketch.</desc>
    <g id="notify-icon" stroke="none" stroke-width="1" fill="none" fill-rule="evenodd">
        <path d="M325.844693,22.1946973 C400.675766,27.9275775 470.097555,101.959373 470.097555,162.18533 L470.097555,416.835789 C470.097555,456.704056 439.80948,489 399.966394,489 C360.132066,489 325.844693,456.689451 325.844693,416.835789 L325.844693,274.228817 C325.844693,274.228817 324.897761,216.171849 314.916446,195.484086 C303.908611,174.092074 282.679762,164.136284 262.46086,164.861135 C235.44013,164.344213 205.830898,180.138567 191.067114,189.24255 L191.067114,223.805107 C191.067114,265.190915 157.482558,298.740741 116.033557,298.740741 C74.5936678,298.740741 41,265.187086 41,223.805107 L41,96.9356333 C41,55.5498258 74.5845563,22 116.033557,22 C145.626257,22 171.217735,39.1108599 183.431678,63.9643187 C201.86479,48.4951671 247.330613,19.3439842 325.844693,22.1946973 Z M116,489 C74.5786438,489 41,455.421356 41,414 C41,372.578644 74.5786438,339 116,339 C157.421356,339 191,372.578644 191,414 C191,455.421356 157.421356,489 116,489 Z" id="Shape" fill="#3b60ff"></path>
    </g>
</svg>